# xmcd
#
# Track frame offsets:
#	180
#	27896
#	43390
#	63754
#	81388
#	100484
#	112156
#	138072
#	157507
#	183389
#
# Disc length: 2820 seconds
#
# Revision: 0
# Processed by: cddbd v1.5.1PL2 Copyright (c) Steve Scherf et al.
# Submitted via: dBpowerAMP V4.0
#
DISCID=7e0b020a
DTITLE=Leon DIMANCHE -  Ayiti
DYEAR=1900
DGENRE=
TTITLE0=Le ya rive
TTITLE1=Si yon jou
TTITLE2=Coeur brise
TTITLE3=Mon inconnue
TTITLE4=Je veux savoir
TTITLE5=Miss haiti
TTITLE6=Va t'en
TTITLE7=Aujourd'hui
TTITLE8=Agoe
TTITLE9=Ayiti
EXTD=Ayiti 
EXTT0=
EXTT1=
EXTT2=
EXTT3=
EXTT4=
EXTT5=
EXTT6=
EXTT7=
EXTT8=
EXTT9=
PLAYORDER=
